<?xml version="1.0" standalone="no"?>
<!DOCTYPE svg PUBLIC "-//W3C//DTD SVG 20010904//EN"
 "http://www.w3.org/TR/2001/REC-SVG-20010904/DTD/svg10.dtd">
<svg version="1.0" xmlns="http://www.w3.org/2000/svg"
 width="395.000000pt" height="395.000000pt" viewBox="0 0 395.000000 395.000000"
 preserveAspectRatio="xMidYMid meet">
<metadata>
Created by potrace 1.14, written by Peter Selinger 2001-2017
</metadata>
<g transform="translate(0.000000,395.000000) scale(0.100000,-0.100000)"
fill="#000000" stroke="none">
<path d="M1620 3829 c-25 -5 -52 -12 -60 -16 -8 -3 -17 -7 -20 -8 -53 -18
-130 -64 -160 -96 -9 -9 -50 -20 -97 -28 -46 -6 -95 -18 -110 -26 -16 -8 -34
-15 -42 -15 -23 0 -142 -59 -213 -106 -68 -45 -153 -131 -179 -181 -8 -15 -16
-30 -19 -33 -13 -13 -30 -52 -30 -69 0 -11 -5 -21 -11 -23 -8 -3 -14 -81 -18
-248 -5 -222 -8 -245 -23 -242 -9 1 -19 -2 -23 -8 -3 -5 -20 -10 -36 -10 -43
0 -122 -21 -137 -37 -7 -7 -17 -13 -22 -13 -4 0 -21 -12 -37 -28 -33 -30 -47
-80 -37 -130 8 -41 76 -111 114 -119 l30 -5 0 -122 0 -121 -38 -36 c-79 -74
-77 -57 -77 -569 l0 -456 25 -49 c30 -58 101 -112 160 -121 l37 -6 6 -122 c9
-206 63 -334 201 -472 90 -90 153 -129 271 -171 l80 -28 780 -3 c542 -2 800 0
845 8 212 37 401 180 495 375 52 109 64 156 73 304 l7 114 48 12 c62 16 116
60 147 121 l25 48 0 456 c0 449 0 456 -22 496 -12 22 -38 55 -57 72 l-36 31 0
120 0 120 28 15 c63 34 85 63 90 121 2 30 2 61 -2 70 -3 8 -5 18 -5 20 0 8
-21 27 -61 56 -36 27 -107 49 -159 49 -16 0 -33 5 -36 10 -4 6 -16 10 -28 8
-22 -3 -22 -2 -27 256 -4 195 -8 260 -17 264 -7 2 -13 9 -13 16 0 18 -24 66
-32 66 -5 0 -8 7 -8 15 0 8 -4 15 -10 15 -5 0 -10 5 -10 10 0 16 -107 120
-160 156 -63 43 -157 90 -210 105 -25 7 -49 16 -55 20 -5 4 -48 13 -95 20 -73
11 -90 17 -124 47 -21 19 -55 41 -75 49 -20 8 -49 21 -66 29 -16 7 -54 18 -84
24 -65 12 -618 11 -681 -1z m-990 -1466 c-5 -16 -11 -35 -13 -43 -3 -8 -6 4
-6 28 -1 30 3 42 13 42 12 0 13 -6 6 -27z m2709 -25 l0 -53 -14 50 c-8 28 -14
51 -15 53 0 1 7 2 15 2 12 0 15 -12 14 -52z"/>
</g>
</svg>
